<?xml version="1.0" encoding="utf-8"?>
<!-- Generator: Adobe Illustrator 21.1.0, SVG Export Plug-In . SVG Version: 6.00 Build 0)  -->
<svg version="1.1" id="Layer_1" xmlns="http://www.w3.org/2000/svg" xmlns:xlink="http://www.w3.org/1999/xlink" x="0px" y="0px" width="250px"
	 viewBox="0 0 1287 563.9" style="enable-background:new 0 0 1287 563.9;" xml:space="preserve">
<style type="text/css">
	.st0{fill:#673366;}
	.st1{fill:#666766;}
	.st2{fill:none;stroke:#231F20;stroke-width:3;}
	.st3{fill:#663366;}
</style>
<title>Asset 1</title>
<g id="Layer_2">
	<g id="Layer_1-2">
		<path class="st0" d="M557.1,4.5c-9,45.8-26.2,109.5-47.5,151.8c-57.5,114.6-125.5,128.1-152,128.5c-59.8,0.9-82.8-52.8-56.2-80.7
			c2.2-2.3,6,0.9,3.8,3.2c-24.2,25.3-3.8,66,51,60.7c23.8-2.3,84.2-18.1,133-114.8c17.2-34.4,31.5-78.3,42.2-130.4
			c0.2-0.7-0.8-1.4-1.5-0.9c-47.2,25.1-81,20.7-102.5,37.7c-22,17.2-21.2,48.6,1,65.1c2.8,1.9-0.5,5.6-3.2,3.7
			c-25-18.4-25.2-53.5-1.2-72.5C451.2,34.7,491,45.7,553,2C555.8,0.1,557.8,1,557.1,4.5z"/>
		<path class="st0" d="M710.7,200.5c-24.8,72.5-56,82.5-89.5,79.5c-30.5-2.8-59.2-13-83-20.8c-7,5.8-17.2,9.5-26,10.2
			c-29,1.8-39.5-31-11.2-36.5c7.5-1.5,17.2,0.8,31,5c18.5-29.2,32.8-63.8,45.2-95.8c11.2-29,23-58.8,38.8-85.8
			c2.2-3.8,23-38,49.2-43c14-2.8,32,4,34,18c0.2,3.2-4.5,4-5,0.8c-1.5-11.5-26.8-33.8-60.2,28.7c-11.5,21.2-22.8,48.8-34.2,76.8
			c-15,37.5-31.5,78.8-49.8,107c22,7.2,48.2,16,75,18.5c35,3,62.5-12.5,80.5-65.8C706.7,194.5,712.7,194,710.7,200.5z M519.9,253.5
			c-9.5-2.5-17.2-4-22.5-3s-4.8,8.2,1.2,10.2C505.1,262.8,512.7,260,519.9,253.5z"/>
		<path class="st0" d="M907.4,92.8c-1.2,3.2-6.2,1.5-5.2-1.8c6.5-20.8,2.5-38.2-11.2-49.8C875.4,28,850.2,26,830.7,36
			c-25,12.8-33,40.2-28.2,67.5c25.5-2.8,44.5,9.2,51.5,22c9.5,17.8-4.2,34.5-30.5,25.5c-11-3.5-22.5-11.8-30.5-25.2
			c-17,7.8-33.2,21.8-40,39.8c-14.8,39.8,3.5,85,37.5,94c51,13.5,86.5-24.2,103.5-76.2c1.2-3.2,6.2-1.5,5.2,1.8
			C880,243.7,843,289,783,278.4c-45.5-8-69.2-68.8-49.8-119.8c9.2-24.2,29-43.5,52.2-51.5c-7.5-32.8,3.2-70,37.5-86.2
			c26.5-12.5,58.8-8.8,77,8.8C915.7,44.5,918.4,67,907.4,92.8z M807.9,120.5c6,11.8,15.2,18.8,24,21.5
			C866.2,153.3,852.2,110.3,807.9,120.5z"/>
		<path class="st1" d="M19.8,464.8c3.7,0.2,7.3-1.5,9.6-4.6c2.3-3,3.4-7.7,3.4-14.1v-69.9c0-6.7-0.8-11.1-2.2-12.9
			c-1.5-1.9-5.1-2.8-10.7-2.8v-2.8h36.6v2.8c-5.6,0-9.2,0.9-10.7,2.8c-1.5,1.8-2.2,6.2-2.2,13v68.4c0,8.7-2.6,15.1-7.8,19.2
			c-4,3.2-9.3,4.8-15.8,4.8c-4.5,0-8.9-1-12.9-3.2c-4.7-2.5-7-5.7-7-9.6c0-1.2,0.5-2.4,1.4-3.3s2.1-1.4,3.4-1.4
			c1.2,0,2.4,0.5,3.3,1.4c0.9,0.8,1.4,2,1.3,3.2c0.1,2.3,1.1,4.5,2.8,6C14.2,463.9,17,464.9,19.8,464.8z"/>
		<path class="st1" d="M66.5,438.7v-2.8c5.6,0,9.2-0.9,10.7-2.8c1.5-1.8,2.2-6.2,2.2-13v-43.9c0-6.7-0.8-11.1-2.2-12.9
			s-5.1-2.8-10.7-2.8v-2.8h61.7l1.1,17.9h-2.8l-0.7-2.7c-1-4-2.2-6.6-3.8-7.8c-2.1-1.6-6-2.5-11.8-2.5h-20v30.7H97
			c6.7,0,11.1-0.7,12.9-2.2c1.9-1.5,2.8-5.1,2.8-10.7h2.8v30.8h-2.8c0-5.6-0.9-9.2-2.8-10.7c-1.8-1.5-6.2-2.2-13-2.2h-6.8V418
			c0,6.8,0.8,11.1,2.2,12.9c1.5,1.9,5,2.8,10.6,2.8h11.6c5.9,0,9.8-0.8,11.8-2.4c1.5-1.2,2.8-3.8,3.8-7.9l0.7-2.7h2.8l-1.1,17.9
			L66.5,438.7z"/>
		<path class="st1" d="M154.5,434.5c-0.9,0.7-1.6,1.5-2.2,2.5c-0.8,1.2-1.4,2.5-1.7,3.8h-2.7v-29.6h2.8l0.9,6.3
			c1,4.4,3.3,8.5,6.5,11.6c4.3,4.3,10.2,6.4,17.4,6.4c4.4,0.2,8.7-1.3,12.1-4.2c3.1-2.6,4.9-6.5,4.8-10.6c0-3-1.4-5.9-4.3-8.7
			c-3.3-3.1-7.1-5.7-11.2-7.6l-12.9-6.6c-4.1-2-7.6-5-10.4-8.7c-3-3.9-4.6-8.7-4.6-13.6c-0.1-5.4,2.2-10.6,6.3-14.2
			c4.2-3.9,9.6-5.8,16-5.8c3.3-0.1,6.6,0.5,9.6,1.6c2.5,1,4.8,2.3,6.8,3.9c0.9-0.8,1.7-1.7,2.4-2.6c0.7-1.1,1.2-2.3,1.5-3.5h2.8
			v29.7h-2.8c0-6.4-1.5-11.7-4.4-15.9c-3.6-5.2-9-7.8-16.2-7.8c-3.5-0.1-6.9,1.1-9.4,3.4c-2.5,2.2-3.8,5.4-3.7,8.7
			c0,3.3,1.4,6.4,3.8,8.7c2.2,2.1,6.4,4.8,12.6,8l12.9,6.6c4.4,2.1,8.2,5.3,10.9,9.4c2.1,3.3,3.2,7.1,3.1,11c0,7.2-2.5,13-7.5,17.5
			s-11.6,6.9-18.3,6.7c-3.4,0-6.7-0.6-9.9-1.7C161.9,437.7,158.2,436.1,154.5,434.5z"/>
		<path class="st1" d="M221.7,434.5c-0.9,0.7-1.6,1.5-2.2,2.5c-0.8,1.2-1.4,2.5-1.7,3.8h-2.7v-29.6h2.8l0.9,6.3
			c1,4.4,3.3,8.5,6.5,11.6c4.3,4.3,10.2,6.4,17.4,6.4c4.4,0.2,8.7-1.3,12.1-4.2c3.1-2.6,4.9-6.5,4.8-10.6c0-3-1.4-5.9-4.3-8.7
			c-3.3-3.1-7.1-5.7-11.2-7.6l-12.9-6.6c-4.1-2-7.6-5-10.4-8.7c-3-3.9-4.6-8.7-4.6-13.6c-0.1-5.4,2.2-10.6,6.3-14.2
			c4.2-3.9,9.6-5.8,16-5.8c3.3-0.1,6.6,0.4,9.7,1.5c2.4,1,4.7,2.4,6.8,4c0.9-0.8,1.7-1.7,2.4-2.6c0.7-1.1,1.2-2.3,1.5-3.5h2.8v29.7
			h-2.8c0-6.4-1.5-11.7-4.4-15.9c-3.6-5.2-9-7.8-16.2-7.8c-3.5-0.1-6.9,1.1-9.4,3.4c-2.5,2.2-3.8,5.4-3.7,8.7c0,3.3,1.4,6.4,3.8,8.7
			c2.2,2.1,6.4,4.8,12.6,8l12.9,6.6c4.4,2.1,8.2,5.3,10.9,9.4c2.1,3.3,3.2,7.1,3.1,11c0,7.2-2.5,13-7.5,17.5s-11.6,6.9-18.3,6.7
			c-3.4,0-6.7-0.6-9.9-1.7C229.1,437.7,225.4,436.1,221.7,434.5z"/>
		<path class="st1" d="M316.2,438.7h-36.6v-2.8c5.6,0,9.2-0.9,10.7-2.8c1.5-1.8,2.2-6.2,2.2-13v-43.9c0-6.7-0.8-11.1-2.2-12.9
			s-5.1-2.8-10.7-2.8v-2.8h36.6v2.8c-5.6,0-9.2,0.9-10.7,2.8c-1.5,1.8-2.2,6.2-2.2,13v43.9c0,6.8,0.8,11.1,2.2,12.9
			c1.5,1.9,5.1,2.8,10.7,2.8V438.7z"/>
		<path class="st1" d="M404.8,437.2h-2.7c-0.4-1.6-1-3.2-1.9-4.6c-0.7-1.2-1.6-2.3-2.8-3.1c-3.4,3.5-7.4,6.3-11.8,8.4
			c-4.2,2-8.8,3-13.4,3c-11.1,0.1-21.7-4.4-29.2-12.5c-16.2-16.9-16.2-43.5,0-60.4c8.1-8.4,17.9-12.6,29.2-12.6
			c4.6,0,9.2,1,13.4,2.9c4.4,2.1,8.4,5,11.8,8.5c1.1-0.9,2-2,2.7-3.3c0.9-1.4,1.5-2.9,1.9-4.5h2.7v29.7H402
			c-1.9-8.8-5.3-15.7-10.4-20.7c-5-4.9-11.8-7.6-18.8-7.4c-9.9,0-17.5,4.1-22.7,12.4c-4.4,6.9-6.6,15.2-6.6,25s2.2,18.1,6.5,25
			c5.3,8.3,12.9,12.5,22.8,12.5c7,0.2,13.8-2.5,18.7-7.5c5.1-5,8.5-11.8,10.4-20.6h2.8L404.8,437.2z"/>
		<path class="st1" d="M437,410.7l-6.5,15c-0.7,1.5-1.1,3.2-1.2,4.8c0,3.6,3.9,5.4,11.8,5.4v2.8h-31.5v-2.9c6.2,0,10.3-1.3,12.1-3.8
			c1.5-2.5,2.9-5.2,3.9-8l29.7-68.6h1.8l29.8,68.6c2.3,5.2,4.1,8.3,5.4,9.5c1.9,1.6,5.4,2.4,10.7,2.4v2.8h-37.5v-2.8
			c7.9,0,11.9-1.8,11.9-5.3c-0.1-1.7-0.6-3.4-1.4-4.9l-6.5-15H437z M467.5,405.7l-14.3-32.6l-14.1,32.6H467.5z"/>
		<path class="st1" d="M534.5,438.7v-2.8c5.6,0,9.2-0.9,10.7-2.8c1.5-1.8,2.2-6.2,2.2-13v-43.9c0-6.7-0.8-11.1-2.2-12.9
			s-5.1-2.8-10.7-2.8v-2.8H571v2.8c-5.6,0-9.2,0.9-10.7,2.8c-1.5,1.8-2.2,6.2-2.2,13V418c0,6.8,0.8,11.1,2.2,12.9
			c1.5,1.9,5.1,2.8,10.7,2.8h16.1c5.9,0,9.8-0.8,11.8-2.4c1.5-1.2,2.8-3.8,3.8-7.9l0.7-2.7h2.8l-1.1,17.9L534.5,438.7z"/>
		<path class="st1" d="M648.7,438.7h-36.6v-2.8c5.6,0,9.2-0.9,10.7-2.8c1.5-1.8,2.2-6.2,2.2-13v-43.9c0-6.7-0.8-11.1-2.2-12.9
			s-5.1-2.8-10.7-2.8v-2.8h36.6v2.8c-5.6,0-9.2,0.9-10.7,2.8c-1.5,1.8-2.2,6.2-2.2,13v43.9c0,6.8,0.8,11.1,2.2,12.9
			c1.5,1.9,5.1,2.8,10.7,2.8V438.7z"/>
		<path class="st1" d="M668.1,434.5c-0.9,0.7-1.6,1.5-2.2,2.5c-0.8,1.2-1.4,2.5-1.7,3.8h-2.7v-29.6h2.8l0.9,6.3
			c1,4.4,3.3,8.5,6.5,11.6c4.3,4.3,10.2,6.4,17.4,6.4c4.4,0.2,8.7-1.3,12.1-4.2c3.1-2.6,4.8-6.5,4.7-10.6c0-3-1.4-5.9-4.3-8.7
			c-3.3-3.1-7.1-5.7-11.2-7.6l-12.9-6.6c-4.1-2-7.6-5-10.3-8.7c-3-3.9-4.6-8.7-4.6-13.6c-0.1-5.5,2.3-10.7,6.4-14.2
			c4.2-3.9,9.6-5.8,16-5.8c3.3-0.1,6.6,0.5,9.7,1.6c2.5,1,4.8,2.3,6.8,3.9c0.9-0.8,1.7-1.7,2.3-2.6c0.7-1.1,1.2-2.3,1.5-3.5h2.8
			v29.7h-2.8c0-6.4-1.5-11.7-4.4-15.9c-3.6-5.2-9-7.8-16.2-7.8c-3.5-0.1-6.9,1.1-9.5,3.4c-2.5,2.2-3.8,5.4-3.7,8.7
			c0,3.3,1.4,6.4,3.8,8.7c2.2,2.1,6.4,4.8,12.6,8l12.9,6.6c4.4,2.1,8.2,5.3,10.9,9.4c2.1,3.3,3.2,7.1,3.2,11c0,7.2-2.5,13-7.5,17.5
			s-11.6,6.9-18.3,6.7c-3.4,0-6.7-0.6-9.9-1.7C675.5,437.7,671.8,436.1,668.1,434.5z"/>
		<path class="st1" d="M762.6,438.7H726v-2.8c5.6,0,9.2-0.9,10.7-2.8c1.5-1.8,2.2-6.2,2.2-13v-43.9c0-6.7-0.8-11.1-2.2-12.9
			s-5.1-2.8-10.7-2.8v-2.8h36.6v2.8c-5.6,0-9.2,0.9-10.7,2.8c-1.5,1.8-2.2,6.2-2.2,13v43.9c0,6.8,0.8,11.1,2.2,12.9
			c1.5,1.9,5.1,2.8,10.7,2.8V438.7z"/>
		<path class="st1" d="M804.2,438.7v-2.8c5.6,0,9.2-0.9,10.7-2.8c1.5-1.8,2.2-6.2,2.2-13v-43.9c0-6.7-0.8-11.1-2.2-12.9
			s-5.1-2.8-10.7-2.8v-2.8h61.7l1.1,17.9h-2.8l-0.7-2.7c-1-4-2.2-6.6-3.8-7.8c-2.1-1.6-6-2.5-11.8-2.5h-20v30.7h6.8
			c6.8,0,11.1-0.8,12.9-2.2c1.9-1.5,2.8-5.1,2.8-10.7h2.8v30.8h-2.8c0-5.6-0.9-9.2-2.8-10.7c-1.8-1.5-6.2-2.2-13-2.2h-6.8V418
			c0,6.8,0.7,11.1,2.2,12.9c1.5,1.9,5.1,2.8,10.7,2.8h11.6c5.9,0,9.8-0.8,11.8-2.4c1.5-1.2,2.8-3.8,3.8-7.9l0.7-2.7h2.8l-1.1,17.9
			L804.2,438.7z"/>
		<path class="st1" d="M966.1,360.5c-6.2,0-10.3,1.3-12.2,3.8c-1.5,2.5-2.9,5.2-3.9,8l-29.7,68.5h-1.8l-29.8-68.5
			c-2.2-5.2-4-8.3-5.4-9.5c-1.9-1.6-5.4-2.4-10.7-2.4v-2.8h37.5v2.8c-8,0-11.9,1.8-11.9,5.3c0.1,1.7,0.6,3.4,1.4,4.9l22.9,52.4
			l22.7-52.4c0.7-1.5,1.1-3.2,1.2-4.8c0-3.6-3.9-5.4-11.8-5.4v-2.8h31.5V360.5z"/>
		<path class="st1" d="M966.1,438.7v-2.8c5.6,0,9.2-0.9,10.7-2.8c1.5-1.8,2.2-6.2,2.2-13v-43.9c0-6.7-0.8-11.1-2.2-12.9
			s-5.1-2.8-10.7-2.8v-2.8h61.7l1.1,17.9h-2.8l-0.7-2.7c-1-4-2.2-6.6-3.8-7.8c-2.1-1.6-6-2.5-11.8-2.5h-20v30.7h6.8
			c6.8,0,11.1-0.7,12.9-2.2c1.9-1.5,2.8-5.1,2.8-10.7h2.8v30.8h-2.8c0-5.6-0.9-9.2-2.8-10.7c-1.8-1.5-6.2-2.2-13-2.2h-6.8V418
			c0,6.8,0.8,11.1,2.2,12.9c1.5,1.9,5.1,2.8,10.7,2.8h11.6c5.9,0,9.8-0.8,11.8-2.4c1.5-1.2,2.8-3.8,3.8-7.9l0.7-2.7h2.8l-1.1,17.9
			L966.1,438.7z"/>
		<path class="st1" d="M1115.8,421.8v-45.6c0-6.7-0.8-11-2.2-12.9c-1.5-1.9-5.1-2.8-10.7-2.8v-2.8h30.8v2.8c-5.6,0-9.2,0.9-10.7,2.8
			c-1.5,1.8-2.2,6.2-2.2,13v64.6h-3.2l-54.9-67.7v47c0,6.8,0.8,11.1,2.2,12.9c1.5,1.9,5.1,2.8,10.7,2.8v2.8h-30.8v-2.8
			c5.6,0,9.2-0.9,10.7-2.8c1.5-1.8,2.2-6.2,2.2-13v-43.9c0-6.7-0.8-11.1-2.2-12.9s-5.1-2.8-10.7-2.8v-2.8h19.1L1115.8,421.8z"/>
		<path class="st1" d="M1221.8,357.7l1.1,18.2h-2.8l-0.7-2.7c-1-4-2.2-6.6-3.8-7.8c-2.1-1.6-6-2.5-11.8-2.5h-17.7V420
			c0,6.8,0.8,11.1,2.2,12.9s5.1,2.8,10.7,2.8v2.8h-36.6v-2.8c5.6,0,9.2-0.9,10.7-2.8c1.5-1.8,2.2-6.2,2.2-13V363h-17.7
			c-5.8,0-9.8,0.8-11.8,2.4c-1.5,1.2-2.8,3.8-3.8,7.9l-0.7,2.7h-2.8l1.1-18.2L1221.8,357.7L1221.8,357.7z"/>
		<path class="st1" d="M1238.5,434.5c-0.9,0.7-1.6,1.5-2.2,2.5c-0.8,1.2-1.4,2.5-1.7,3.8h-2.7v-29.6h2.8l0.9,6.3
			c1,4.4,3.3,8.5,6.5,11.6c4.3,4.3,10.2,6.4,17.4,6.4c4.4,0.2,8.7-1.3,12.1-4.2c3.1-2.6,4.9-6.5,4.8-10.6c0-3-1.4-5.9-4.3-8.7
			c-3.3-3.1-7.1-5.7-11.2-7.6l-12.9-6.6c-4.1-2-7.6-5-10.3-8.7c-3-3.9-4.6-8.7-4.6-13.6c-0.1-5.4,2.2-10.6,6.3-14.2
			c4.2-3.9,9.6-5.8,16-5.8c3.3-0.1,6.6,0.4,9.7,1.5c2.5,1,4.8,2.3,6.8,3.9c0.9-0.8,1.7-1.7,2.3-2.6c0.7-1.1,1.2-2.3,1.5-3.5h2.8
			v29.7h-2.8c0-6.4-1.5-11.7-4.4-15.9c-3.6-5.2-9-7.8-16.2-7.8c-3.5-0.1-6.9,1.1-9.4,3.4c-2.5,2.2-3.8,5.4-3.7,8.7
			c0,3.3,1.4,6.4,3.8,8.7c2.2,2.1,6.4,4.8,12.6,8l12.9,6.6c4.4,2.1,8.2,5.3,10.9,9.4c2.1,3.3,3.2,7.1,3.2,11c0,7.2-2.5,13-7.5,17.5
			s-11.6,6.9-18.3,6.7c-3.4,0-6.7-0.6-9.9-1.7C1245.9,437.7,1242.2,436.1,1238.5,434.5z"/>
		<line class="st2" x1="2" y1="485.7" x2="1284.1" y2="485.7"/>
		<path class="st3" d="M288.4,532.2l-0.9,0.9c-2.1-1.3-3.9-3.2-5.1-5.4c-1-1.7-1.6-3.7-1.7-5.7c-0.1-1.3,0.3-2.5,1.2-3.5
			c0.7-0.8,1.7-1.2,2.8-1.2c0.9,0,1.8,0.3,2.5,1c1.3,1.4,1.3,3.6,0,5c-0.6,0.7-1.5,1-2.5,1h-0.6c0.2,1.4,0.6,2.7,1.2,3.9
			C286.2,529.6,287.2,531,288.4,532.2z M300.7,532.2l-0.9,0.9c-2.1-1.3-3.9-3.2-5.1-5.4c-1.1-1.7-1.6-3.7-1.7-5.7
			c-0.1-1.3,0.3-2.5,1.2-3.5c0.7-0.8,1.7-1.2,2.8-1.2c0.9,0,1.8,0.3,2.5,1c1.3,1.4,1.3,3.6,0,5c-0.6,0.7-1.5,1-2.5,1h-0.6
			c0.2,1.4,0.6,2.7,1.2,3.9C298.5,529.6,299.5,531,300.7,532.2z"/>
		<path class="st3" d="M332,544.9v7.7c0,3.7,0.4,6,1.2,7.1s2.8,1.5,5.8,1.5v1.5h-20v-1.5c3.1,0,5-0.5,5.8-1.5s1.2-3.4,1.2-7.1v-7.2
			l-12.3-18.9c-1.2-2-2.7-3.7-4.6-5.1c-1.8-1-3.9-1.5-6-1.4v-1.5h21v1.6c-1.4-0.1-2.7,0.1-4,0.6c-0.7,0.3-1.3,1-1.3,1.8
			c0,0.6,0.2,1.3,0.6,1.8c0.2,0.4,0.5,0.9,0.8,1.4l10.5,16.2l10.8-16.2c0.8-1,1.4-2.2,1.6-3.5c0-1.4-1.8-2.1-5.5-2.1v-1.5h17.2v1.6
			c-3.4,0-5.9,0.8-7.6,2.5c-1.1,1.2-2.1,2.6-3,4L332,544.9z"/>
		<path class="st3" d="M406.5,540.5c0.1,6.3-2.6,12.3-7.2,16.5c-9.8,9.1-24.9,9.1-34.7,0c-9.1-8.4-9.7-22.6-1.3-31.7
			c0.4-0.5,0.9-0.9,1.3-1.3c9.8-9.1,24.9-9.1,34.7,0C404,528.2,406.6,534.3,406.5,540.5z M381.9,520.1c-5.8,0-10.3,2.2-13.5,6.8
			c-5.4,8.3-5.4,19-0.1,27.3c3.2,4.5,7.7,6.8,13.6,6.8s10.4-2.2,13.5-6.8c5.4-8.3,5.4-19,0.1-27.3
			C392.3,522.4,387.8,520.1,381.9,520.1L381.9,520.1z"/>
		<path class="st3" d="M452.8,528.6c0-3.7-0.4-6-1.2-7.1c-0.8-1-2.8-1.5-5.8-1.5v-1.5H463v1.5c-3.1,0-5,0.5-5.8,1.5
			s-1.2,3.4-1.2,7.1v17.6c0,5.6-1.7,10-5.2,13.2c-3.2,3-7.4,4.5-12.5,4.5s-9.3-1.5-12.5-4.5c-3.4-3.2-5.2-7.6-5.2-13.2v-17.6
			c0-3.7-0.4-6-1.2-7.1c-0.8-1-2.8-1.5-5.9-1.5v-1.5h20v1.5c-3.1,0-5,0.5-5.8,1.5s-1.2,3.4-1.2,7.1v18c0,4.6,1.2,8.1,3.7,10.5
			s5.8,3.6,9.3,3.4c4.1,0,7.3-1.1,9.6-3.4c2.6-2.5,3.9-6,3.9-10.5L452.8,528.6z"/>
		<path class="st3" d="M489.5,543.3l7.1,8.5c2,2.5,4.4,4.7,7,6.5c2,1.5,4.4,2.5,6.8,2.8v1.5h-12.2l-14.6-19.4h-3.5v9.2
			c0,3.7,0.4,6,1.2,7.1s2.8,1.5,5.8,1.5v1.5h-20V561c3.1,0,5-0.5,5.8-1.5s1.2-3.4,1.2-7.1v-24c0-3.7-0.4-6-1.2-7.1s-2.8-1.5-5.8-1.5
			v-1.5h19.5c5,0,8.9,1.2,11.8,3.6c2.7,2.2,4.2,5.4,4.1,8.9c0,3.1-1.2,6.2-3.5,8.3C496.5,541.7,493.1,543.1,489.5,543.3z
			 M486.7,540.6c2.6,0.2,5.2-0.8,7-2.7c3.2-4.1,3.2-9.7,0.1-13.9c-1.8-2-4.4-3-7.1-2.9h-6.5v19.5L486.7,540.6L486.7,540.6z"/>
		<path class="st3" d="M549.7,518.5c5,0,8.9,1.2,11.8,3.6c4.9,4.2,5.4,11.5,1.3,16.4c-0.4,0.4-0.8,0.9-1.3,1.3
			c-2.9,2.4-6.8,3.6-11.8,3.6h-6.6v9.2c0,3.7,0.4,6,1.2,7.1c0.8,1,2.8,1.5,5.8,1.5v1.5h-20v-1.5c3.1,0,5-0.5,5.8-1.5
			s1.2-3.4,1.2-7.1v-24c0-3.7-0.4-6-1.2-7.1s-2.8-1.5-5.8-1.5v-1.5H549.7z M549.6,540.6c2.6,0.2,5.2-0.8,7-2.7
			c3.2-4.1,3.2-9.7,0.2-13.9c-1.8-2-4.4-3-7.1-2.9h-6.5v19.5L549.6,540.6L549.6,540.6z"/>
		<path class="st3" d="M570,562.7v-1.5c3.1,0,5-0.5,5.8-1.5s1.2-3.4,1.2-7.1v-24c0-3.7-0.4-6-1.2-7.1c-0.8-1-2.8-1.5-5.8-1.5v-1.5
			h33.7l0.6,9.8h-1.5l-0.4-1.5c-0.5-2.2-1.2-3.6-2.1-4.2c-1.1-0.9-3.3-1.3-6.5-1.4h-10.9V538h3.7c3.7,0,6-0.4,7.1-1.2
			c1-0.8,1.5-2.8,1.5-5.8h1.5v16.8h-1.5c0-3.1-0.5-5-1.5-5.8s-3.4-1.2-7.1-1.2h-3.7v10.8c0,3.7,0.4,6,1.2,7.1c0.8,1,2.8,1.5,5.8,1.5
			h6.3c3.2,0,5.3-0.4,6.5-1.3c0.8-0.7,1.5-2.1,2.1-4.3l0.4-1.5h1.5l-0.6,9.8L570,562.7z"/>
		<path class="st3" d="M635.2,543.3l7.2,8.5c2,2.5,4.4,4.7,7,6.5c2,1.5,4.4,2.5,6.8,2.8v1.5H644l-14.6-19.4h-3.5v9.2
			c0,3.7,0.4,6,1.2,7.1c0.8,1,2.8,1.5,5.8,1.5v1.5h-20V561c3.1,0,5-0.5,5.8-1.5s1.2-3.4,1.2-7.1v-24c0-3.7-0.4-6-1.2-7.1
			c-0.8-1-2.8-1.5-5.8-1.5v-1.5h19.5c5,0,8.9,1.2,11.8,3.6c2.7,2.2,4.2,5.4,4.1,8.9c0,3.1-1.2,6.2-3.5,8.3
			C642.2,541.7,638.8,543.1,635.2,543.3z M632.4,540.6c2.6,0.2,5.2-0.8,7-2.7c3.2-4.1,3.2-9.7,0.2-13.9c-1.8-2-4.4-3-7.1-2.9H626
			v19.5L632.4,540.6L632.4,540.6z"/>
		<path class="st3" d="M671.6,521.2V538h3.7c3.7,0,6-0.4,7.1-1.2c1-0.8,1.5-2.8,1.5-5.8h1.5v16.8h-1.5c0-3.1-0.5-5-1.5-5.8
			s-3.4-1.2-7.1-1.2h-3.7v11.9c0,3.7,0.4,6,1.2,7.1s2.8,1.5,5.8,1.5v1.5h-20v-1.5c3.1,0,5-0.5,5.8-1.5s1.2-3.4,1.2-7.1v-24
			c0-3.7-0.4-6-1.2-7.1s-2.8-1.5-5.8-1.5v-1.5h34.9l0.6,9.8h-1.5l-0.4-1.5c-0.5-2.2-1.2-3.6-2.1-4.2c-1.1-0.9-3.3-1.3-6.5-1.4
			L671.6,521.2z"/>
		<path class="st3" d="M698.2,562.7v-1.5c3.1,0,5-0.5,5.8-1.5s1.2-3.4,1.2-7.1v-24c0-3.7-0.4-6-1.2-7.1c-0.8-1-2.8-1.5-5.8-1.5v-1.5
			h33.7l0.6,9.8H731l-0.4-1.5c-0.5-2.2-1.2-3.6-2.1-4.2c-1.1-0.9-3.3-1.3-6.5-1.4h-10.9V538h3.7c3.7,0,6-0.4,7.1-1.2
			c1-0.8,1.5-2.8,1.5-5.8h1.6v16.8h-1.5c0-3.1-0.5-5-1.5-5.8s-3.4-1.2-7.1-1.2h-3.7v10.8c0,3.7,0.4,6,1.2,7.1c0.8,1,2.8,1.5,5.8,1.5
			h6.3c3.2,0,5.3-0.4,6.5-1.3c0.8-0.7,1.5-2.1,2.1-4.3l0.4-1.5h1.5l-0.6,9.8L698.2,562.7z"/>
		<path class="st3" d="M784,561.9h-1.5c-0.2-0.9-0.5-1.7-1-2.5c-0.4-0.7-0.9-1.3-1.5-1.7c-1.8,1.9-4,3.5-6.4,4.6
			c-2.3,1.1-4.8,1.6-7.3,1.6c-6.1,0.1-11.9-2.4-16-6.8c-8.9-9.2-8.9-23.8,0-33c4.1-4.5,9.9-6.9,16-6.9c2.5,0,5,0.5,7.3,1.6
			c2.4,1.2,4.6,2.7,6.4,4.7c0.6-0.5,1.1-1.1,1.5-1.8c0.5-0.8,0.8-1.6,1-2.5h1.5v16.2h-1.5c-1-4.8-2.9-8.6-5.7-11.3
			c-2.7-2.7-6.4-4.2-10.3-4.1c-5.1-0.2-9.8,2.4-12.4,6.8c-4.8,8.5-4.8,18.8-0.1,27.3c4.4,6.9,13.6,8.9,20.5,4.4
			c0.8-0.5,1.5-1.1,2.2-1.7c3-3.1,4.9-7,5.7-11.2h1.5L784,561.9L784,561.9z"/>
		<path class="st3" d="M835.5,518.5l0.6,10h-1.5l-0.4-1.5c-0.5-2.2-1.2-3.6-2.1-4.2c-1.1-0.9-3.3-1.3-6.5-1.3H816v31.2
			c0,3.7,0.4,6,1.2,7.1c0.8,1,2.8,1.5,5.8,1.5v1.5h-20v-1.5c3.1,0,5-0.5,5.8-1.5s1.2-3.4,1.2-7.1v-31.3h-9.6c-3.2,0-5.3,0.4-6.5,1.3
			c-0.8,0.7-1.5,2.1-2.1,4.3l-0.4,1.5H790l0.6-10H835.5z"/>
		<path class="st3" d="M856.7,562.7v-1.5c3.1,0,5-0.5,5.8-1.5s1.2-3.4,1.2-7.1v-24c0-3.7-0.4-6-1.2-7.1s-2.8-1.5-5.8-1.5v-1.5h20
			c8.2,0,14.4,2.2,18.7,6.5c3.9,3.9,5.9,9.2,5.9,15.7s-1.9,11.7-5.8,15.6c-4.3,4.3-10.6,6.5-18.8,6.5L856.7,562.7z M869.6,521.2
			v30.2c0,3.7,0.4,6.1,1.2,7.1s2.7,1.5,5.7,1.5h0.3c6.5,0,11.2-2.1,14.1-6.5c2.2-3.2,3.3-7.6,3.3-13s-1.1-9.7-3.3-12.9
			c-3-4.3-7.7-6.5-14.1-6.5L869.6,521.2z"/>
		<path class="st3" d="M918.7,547.4l-3.5,8.2c-0.4,0.8-0.6,1.7-0.7,2.6c0,2,2.2,3,6.5,3v1.5h-17.2v-1.5c3.4,0,5.6-0.7,6.6-2.1
			c0.8-1.4,1.6-2.8,2.2-4.4l16.2-37.5h1l16.2,37.4c1.2,2.8,2.2,4.5,3,5.2c1,0.9,3,1.3,5.8,1.3v1.5h-20.5v-1.5c4.3,0,6.5-1,6.5-2.9
			c-0.1-0.9-0.3-1.9-0.8-2.7l-3.6-8.2L918.7,547.4z M935.4,544.7l-7.8-17.8l-7.7,17.8H935.4z"/>
		<path class="st3" d="M978,544.9v7.7c0,3.7,0.4,6,1.2,7.1s2.8,1.5,5.8,1.5v1.5h-20v-1.5c3.1,0,5-0.5,5.8-1.5s1.2-3.4,1.2-7.1v-7.2
			l-12.3-18.9c-1.2-2-2.7-3.7-4.6-5.1c-1.8-1-3.9-1.5-6-1.4v-1.5h21v1.6c-1.4-0.1-2.7,0.1-4,0.6c-0.7,0.3-1.3,1-1.3,1.8
			c0,0.6,0.2,1.3,0.6,1.8c0.2,0.4,0.5,0.9,0.8,1.4l10.5,16.2l10.8-16.2c0.8-1,1.4-2.2,1.6-3.5c0-1.4-1.8-2.1-5.5-2.1v-1.5h17.2v1.6
			c-3.4,0-5.9,0.8-7.6,2.5c-1.1,1.2-2.1,2.6-3,4L978,544.9z"/>
		<path class="st3" d="M1007.7,524.3l-0.6,0.1c-0.9,0-1.8-0.3-2.5-1c-1.3-1.4-1.3-3.6,0-5c0.6-0.7,1.5-1,2.5-1
			c1.1,0,2.1,0.4,2.8,1.2c0.9,0.9,1.3,2.2,1.2,3.5c-0.1,2-0.6,3.9-1.7,5.7c-1.2,2.2-3,4.1-5.1,5.5l-0.9-0.9c1.2-1.2,2.2-2.5,3-3.9
			C1007.1,527.1,1007.5,525.7,1007.7,524.3z M1020,524.3l-0.6,0.1c-0.9,0-1.8-0.3-2.5-1c-1.3-1.4-1.3-3.6,0-5c0.6-0.7,1.5-1,2.5-1
			c1.1,0,2.1,0.4,2.8,1.2c0.9,0.9,1.3,2.2,1.2,3.5c-0.1,2-0.6,3.9-1.7,5.7c-1.2,2.2-3,4.1-5.1,5.5l-0.9-0.9c1.2-1.2,2.2-2.5,3-3.9
			C1019.4,527.2,1019.8,525.7,1020,524.3L1020,524.3z"/>
	</g>
</g>
</svg>
